<?xml version="1.0" encoding="UTF-8" standalone="no"?>
<!DOCTYPE svg PUBLIC "-//W3C//DTD SVG 1.1//EN" "http://www.w3.org/Graphics/SVG/1.1/DTD/svg11.dtd">
<svg width="100%" height="100%" viewBox="0 0 232 232" version="1.1" xmlns="http://www.w3.org/2000/svg" xmlns:xlink="http://www.w3.org/1999/xlink" xml:space="preserve" xmlns:serif="http://www.serif.com/" style="fill-rule:evenodd;clip-rule:evenodd;stroke-linejoin:round;stroke-miterlimit:2;">
                <path d="M232,0L0,0L0,232L232,232L232,0ZM206.145,206.145L196.656,206.145L196.656,215.634L206.145,215.634L206.145,206.145ZM82.789,149.211L16.366,149.211L16.366,215.634L82.789,215.634L82.789,149.211ZM187.167,206.145L177.678,206.145L177.678,215.634L187.167,215.634L187.167,206.145ZM168.189,206.145L158.7,206.145L158.7,215.634L168.189,215.634L168.189,206.145ZM25.855,158.7L25.855,206.145L73.3,206.145L73.3,158.7L25.855,158.7ZM196.656,149.211L196.656,139.722L187.167,139.722L187.167,149.211L158.7,149.211L158.7,158.7L120.744,158.7L120.744,168.189L101.767,168.189L101.767,177.678L92.278,177.678L92.278,187.167L101.767,187.167L101.767,177.678L111.256,177.678L111.256,187.167L101.767,187.167L101.767,196.656L111.256,196.656L111.256,206.145L158.7,206.145L158.7,196.656L149.211,196.656L149.211,187.167L120.744,187.167L120.744,177.678L139.722,177.678L139.722,168.189L158.7,168.189L158.7,196.656L187.167,196.656L187.167,187.167L177.678,187.167L177.678,168.189L168.189,168.189L168.189,158.7L206.145,158.7L206.145,149.211L196.656,149.211ZM206.145,177.678L187.167,177.678L187.167,187.167L206.145,187.167L206.145,196.656L215.634,196.656L215.634,158.7L206.145,158.7L206.145,177.678ZM63.811,196.656L63.811,168.189L35.344,168.189L35.344,196.656L63.811,196.656ZM101.767,139.722L101.767,130.233L73.3,130.233L73.3,139.722L92.278,139.722L92.278,149.211L111.256,149.211L111.256,158.7L120.744,158.7L120.744,139.722L101.767,139.722ZM215.634,139.722L206.145,139.722L206.145,149.211L215.634,149.211L215.634,139.722ZM149.211,111.256L130.233,111.256L130.233,120.744L111.256,120.744L111.256,130.233L130.233,130.233L130.233,149.211L139.722,149.211L139.722,139.722L158.7,139.722L158.7,130.233L139.722,130.233L139.722,120.744L149.211,120.744L149.211,111.256ZM177.678,130.233L168.189,130.233L168.189,139.722L177.678,139.722L177.678,130.233ZM25.855,130.233L16.366,130.233L16.366,139.722L25.855,139.722L25.855,130.233ZM206.145,130.233L196.656,130.233L196.656,139.722L206.145,139.722L206.145,130.233ZM168.189,120.744L158.7,120.744L158.7,130.233L168.189,130.233L168.189,120.744ZM73.3,120.744L63.811,120.744L63.811,130.233L73.3,130.233L73.3,120.744ZM35.344,120.744L25.855,120.744L25.855,130.233L35.344,130.233L35.344,120.744ZM187.167,111.256L187.167,92.278L158.7,92.278L158.7,111.256L168.189,111.256L168.189,101.767L177.678,101.767L177.678,130.233L187.167,130.233L187.167,120.744L196.656,120.744L196.656,111.256L187.167,111.256ZM215.634,130.233L206.145,130.233L206.145,111.256L196.656,111.256L196.656,92.278L215.634,92.278L215.634,130.233ZM44.833,101.767L16.366,101.767L16.366,111.256L35.344,111.256L35.344,120.744L54.322,120.744L54.322,92.278L44.833,92.278L44.833,101.767ZM101.767,111.256L73.3,111.256L73.3,120.744L101.767,120.744L101.767,111.256ZM130.233,101.767L111.256,101.767L111.256,111.256L130.233,111.256L130.233,101.767ZM73.3,101.767L63.811,101.767L63.811,111.256L73.3,111.256L73.3,101.767ZM111.256,92.278L101.767,92.278L101.767,101.767L111.256,101.767L111.256,92.278ZM139.722,92.278L130.233,92.278L130.233,101.767L139.722,101.767L139.722,92.278ZM82.789,92.278L73.3,92.278L73.3,101.767L82.789,101.767L82.789,92.278ZM101.767,25.855L101.767,16.366L92.278,16.366L92.278,35.344L101.767,35.344L101.767,44.833L92.278,44.833L92.278,82.789L101.767,82.789L101.767,73.3L111.256,73.3L111.256,92.278L120.744,92.278L120.744,63.811L111.256,63.811L111.256,54.322L120.744,54.322L120.744,44.833L139.722,44.833L139.722,25.855L101.767,25.855ZM139.722,73.3L130.233,73.3L130.233,82.789L139.722,82.789L139.722,73.3ZM215.634,82.789L149.211,82.789L149.211,16.366L215.634,16.366L215.634,82.789ZM82.789,82.789L82.789,16.366L16.366,16.366L16.366,82.789L82.789,82.789ZM158.7,25.855L158.7,73.3L206.145,73.3L206.145,25.855L158.7,25.855ZM25.855,25.855L25.855,73.3L73.3,73.3L73.3,25.855L25.855,25.855ZM35.344,35.344L35.344,63.811L63.811,63.811L63.811,35.344L35.344,35.344ZM196.656,63.811L196.656,35.344L168.189,35.344L168.189,63.811L196.656,63.811ZM130.233,54.322L120.744,54.322L120.744,63.811L130.233,63.811L130.233,54.322Z" style=""/>
            </svg>
